# xmcd
#
# Track frame offsets:
#	150
#	18442
#	35462
#	50552
#	65998
#	83610
#	98125
#	113127
#	129692
#	144367
#	156824
#	169446
#	187573
#	204133
#
# Disc length: 2913 seconds
#
# Revision: 4
# Processed by: cddbd v1.5.2PL0 Copyright (c) Steve Scherf et al.
# Submitted via: audiograbber 1.83.01
#
DISCID=b70b5f0e
DTITLE=Various Artist - Hot Hits Country Vol. 58
DYEAR=1996
DGENRE=Country
TTITLE0=Shania Twain - Home Ain't Where His Heart Is (Anymore)
TTITLE1=Billy Dean - That Girl's Been Spyin' On Me
TTITLE2=Sammy Kershaw - Vidalia
TTITLE3=Billy Ray Cyrus - Trail Of Tears
TTITLE4=David Lee Murphy - The Road You Leave Behind
TTITLE5=Lorrie Morgan - I Just Might Be
TTITLE6=Marty Stuart - Thanks To You
TTITLE7=Kenny Chesney - Me And You
TTITLE8=Jeff Carson - That Last Mile
TTITLE9=Gary Allan - Her Man
TTITLE10=George Jones - Honky Tonk Song
TTITLE11=Ronna Reeves - Rodeo Man
TTITLE12=Diamond Rio - It's All In Your Head
TTITLE13=Ricochet - Love Is Stronger Than Pride
EXTD=
EXTT0=
EXTT1=
EXTT2=
EXTT3=
EXTT4=
EXTT5=
EXTT6=
EXTT7=
EXTT8=
EXTT9=
EXTT10=
EXTT11=
EXTT12=
EXTT13=
PLAYORDER=
